<?xml version="1.0" encoding="UTF-8"?><svg id="Layer_2" xmlns="http://www.w3.org/2000/svg" viewBox="0 0 150.8 17.89"><defs><style>.cls-1{fill-rule:evenodd;}.cls-1,.cls-2{fill:#fdf8f8;}</style></defs><g id="Layer_1-2"><path class="cls-1" d="M73.18,17.5c-2.43,0-4.47-.81-4.96-1.02l-.66.77h-1.31l-1.88-4.49,1.11-.62c1.24,1.62,3.75,3.78,7.24,3.78,2.17,0,3.87-1.09,3.87-2.52,0-1.94-2.39-2.62-5.06-3.39-.4-.11-.8-.23-1.2-.35-2.97-.88-5.85-2.09-5.85-5.34,0-2.74,2.79-4.32,5.96-4.32,2.01,0,3.59.58,4.21.86l.64-.75h1.07l1.82,4.08-1.01.62c-1.72-2.15-3.63-3.2-6.3-3.2-2.14,0-3.57.81-3.57,2.03,0,1.92,2.33,2.63,4.92,3.36l.15.04c3.25.91,6.85,1.91,6.85,5.49,0,2.73-2.6,4.98-6.04,4.98Z"/><path class="cls-1" d="M21.2,3.62l.79.81.8-.28-1.61-3.67h-7.91c-1.16,0-2.46-.04-3.64-.07-1-.03-1.92-.06-2.61-.06-4.25,0-7.01,2.05-7.01,5.45,0,2.42,1.67,4.1,4.14,4.1,2.24,0,4.19-1.73,4.19-3.76,0-.77-.51-1.54-1.32-1.54-1.19,0-1.86,1.09-1.99,2.07l-.03.28c-.08.76-.16,1.52-1.16,1.52-1.19,0-2.24-1.05-2.24-2.74,0-2.14,1.69-4,5.43-4,2.18,0,3.25.02,3.25,1.35v11.32c0,1.37-.94,1.58-1.95,1.71v1.03h7.01v-1.03c-1.11-.08-2.1-.47-2.1-1.73v-5.36h4.1c1.47,0,1.92.98,1.97,2.1h.76v-5.58h-.64c-.17,1.11-.75,2.2-2.18,2.2h-4.01V3.26c0-.7.47-1.41,1.69-1.41h1.9c1.81,0,3.24.6,4.38,1.77h0Z"/><path class="cls-1" d="M23.6,17.08h12.76l2.09-4.51-.77-.52c-.32.41-.77.94-.77.94-.74.9-2.76,2.67-4.53,2.67h-1.97c-.8,0-1.69-.47-1.69-1.52V3.39c0-1.36,1.14-1.67,2.14-1.95l.07-.02V.42h-7.22v.98c.94.21,2.07.56,2.07,2.05v10.62c0,1.31-1.22,1.75-2.18,1.99v1.03h0Z"/><path class="cls-1" d="M39.38,17.08v-1c1-.13,1.97-.36,1.97-1.71V3.19c0-1.26-.88-1.58-1.97-1.77V.42h6.99v1.05c-.96.15-2.12.53-2.12,1.75v11.13c0,1.26,1,1.62,2.12,1.73v1h-6.99Z"/><path class="cls-1" d="M95.19,17.27h12.76l2.09-4.51-.77-.52c-.32.41-.77.94-.77.94-.74.9-2.76,2.67-4.53,2.67h-1.97c-.8,0-1.69-.47-1.69-1.52V3.57c0-1.36,1.14-1.67,2.14-1.95l.07-.02V.6h-7.22v.98c.94.21,2.07.56,2.07,2.05v10.62c0,1.31-1.22,1.75-2.18,1.99v1.03h0Z"/><path class="cls-1" d="M110.97,17.27v-1c1-.13,1.97-.36,1.97-1.71V3.38c0-1.26-.88-1.58-1.97-1.77V.6h6.99v1.05c-.96.15-2.12.53-2.12,1.75v11.13c0,1.26,1,1.62,2.12,1.73v1h-6.99Z"/><path class="cls-1" d="M56.78.42h-8.55v.98c.88.17,2.37.81,2.37,2.35v10.38c0,1.39-1.22,1.82-2.09,1.92v1.03h7.12v-1.03c-1.14-.23-2.05-.64-2.05-2.07v-5.11h3.5c4.32,0,5.83-2.03,5.83-4.4s-1.88-4.06-6.13-4.06ZM56.53,7.4h-2.95V3.37c0-1.39.71-1.67,2.36-1.67,2.17,0,3.82.81,3.82,2.78,0,1.81-1.37,2.93-3.22,2.93Z"/><path class="cls-1" d="M88.35.6h-8.55v.98c.88.17,2.37.81,2.37,2.35v10.38c0,1.39-1.22,1.82-2.09,1.92v1.03h7.12v-1.03c-1.14-.23-2.05-.64-2.05-2.07v-5.11h3.5c4.32,0,5.83-2.03,5.83-4.4s-1.88-4.06-6.13-4.06ZM88.1,7.59h-2.95V3.55c0-1.39.71-1.67,2.36-1.67,2.17,0,3.82.81,3.82,2.78,0,1.81-1.37,2.93-3.22,2.93Z"/><path class="cls-1" d="M135.5,17.27h13.4l1.9-4.29-.73-.39c-.2.23-.39.47-.56.73-.68.88-2.07,2.61-4.29,2.61h-3.1c-.99,0-1.43-.28-1.43-1.6v-5.17h4.1c1.5,0,1.94.98,1.97,2.09h.79v-5.58h-.66c-.15,1.11-.75,2.2-2.18,2.2h-4.01V3.33c0-.7.49-1.41,1.69-1.41h1.92c1.82,0,3.25.64,4.36,1.82l.79.81.79-.28-1.6-3.67h-13.1v1.03l.14.03c.74.13,2.05.35,2.05,1.79v10.92c0,1.54-1.32,1.8-2.24,1.88v1.03h0Z"/><path class="cls-2" d="M133.12.8l1.5,5.62-1.37.35c-1.11-2.74-3.47-5.13-6.68-4.55-5.02.92-5.29,13.81,1.35,13.94,2.47.05,4.47-1.45,5.63-3.53l1.42.59c-2.27,5.91-10.9,6.15-14.21,1.05-1.92-2.95-1.93-7.14-.09-10.13,2.24-3.63,7.09-4.9,10.68-2.43l.52-.86,1.25-.04Z"/></g></svg>